<svg xmlns="http://www.w3.org/2000/svg" width="1876" height="3099.3" viewBox="0 0 1876 3099.3"><title>Wireframe Räume Desktop · ≥ 1400 px (1440 px)</title><text x="0" y="34" font-family="'Source Sans 3', Arial, sans-serif" font-size="20" font-weight="600" fill="#2B2B2A">Räume – Desktop · ≥ 1400 px (1440 px)</text><text x="1504" y="34" font-family="'Source Sans 3', Arial, sans-serif" font-size="20" font-weight="600" fill="#E8730C">Anmerkungen</text><rect x="0" y="64" width="1440" height="2987.3" fill="#FFFFFF" stroke="#C9C6C0" stroke-width="1"/><rect x="0" y="64" width="1440" height="104" fill="#FFFFFF"/><line x1="0" y1="168" x2="1440" y2="168" stroke="#C9C6C0" stroke-width="1"/><rect x="64" y="84" width="92" height="64" fill="#E4E2DE" stroke="#9C9892" stroke-width="1"/><rect x="64" y="84" width="22.1" height="64" fill="#443189"/><text x="121" y="120" font-family="'Source Sans 3', Arial, sans-serif" font-size="12" font-weight="400" fill="#6E6A64" text-anchor="middle">Logo</text><rect x="1280" y="94" width="44" height="44" rx="2" fill="#443189"/><circle cx="1302" cy="116" r="6" fill="none" stroke="#FFFFFF" stroke-width="1.8"/><rect x="1332" y="94" width="44" height="44" rx="2" fill="none" stroke="#2B2B2A" stroke-width="1"/><circle cx="1354" cy="116" r="10" fill="none" stroke="#2B2B2A" stroke-width="1.6"/><rect x="1146" y="92" width="110" height="48" rx="2" fill="#443189"/><text x="1201" y="121.3" font-family="'Source Sans 3', Arial, sans-serif" font-size="15" font-weight="600" fill="#FFFFFF" text-anchor="middle">Tickets</text><text x="1015.4" y="122" font-family="'Source Sans 3', Arial, sans-serif" font-size="16" font-weight="600" fill="#2B2B2A">Museumscafé</text><text x="867.6" y="122" font-family="'Source Sans 3', Arial, sans-serif" font-size="16" font-weight="600" fill="#2B2B2A">Die Gründerin</text><text x="788.6" y="122" font-family="'Source Sans 3', Arial, sans-serif" font-size="16" font-weight="600" fill="#443189">Räume</text><rect x="788.6" y="130" width="43" height="3" fill="#443189"/><text x="640.8" y="122" font-family="'Source Sans 3', Arial, sans-serif" font-size="16" font-weight="600" fill="#2B2B2A">Künstlerinnen</text><text x="475.8" y="122" font-family="'Source Sans 3', Arial, sans-serif" font-size="16" font-weight="600" fill="#2B2B2A">Veranstaltungen</text><text x="353.8" y="122" font-family="'Source Sans 3', Arial, sans-serif" font-size="16" font-weight="600" fill="#2B2B2A">Startseite</text><rect x="0" y="168" width="1440" height="480" fill="#E4E2DE" stroke="#C9C6C0" stroke-width="1"/><line x1="0" y1="168" x2="1440" y2="648" stroke="#C9C6C0" stroke-width="1"/><line x1="1440" y1="168" x2="0" y2="648" stroke="#C9C6C0" stroke-width="1"/><rect x="569.2" y="395" width="301.6" height="26" rx="3" fill="#FFFFFF" fill-opacity="0.92"/><text x="720" y="412.5" font-family="'Source Sans 3', Arial, sans-serif" font-size="12" font-weight="400" fill="#6E6A64" text-anchor="middle">Bildstreifen: Besucherin im Ausstellungssaal</text><rect x="64" y="704" width="6" height="79.2" fill="#443189"/><text x="88" y="770.2" font-family="'Cormorant Garamond', Georgia, serif" font-size="72" font-weight="600" fill="#2B2B2A">Räume</text><text x="64" y="891.2" font-family="'Cormorant Garamond', Georgia, serif" font-size="32" font-weight="600" fill="#2B2B2A">Im Isabella-Edel-Museum finden Sie</text><text x="64" y="931.2" font-family="'Cormorant Garamond', Georgia, serif" font-size="32" font-weight="600" fill="#2B2B2A">die vier Ausstellungsräume</text><g transform="translate(40 973.2) scale(1.2) translate(24 292)"><g id="plan-r4"><polygon points="194.2,-112.1 329.1,-190.0 441.0,-125.4 306.1,-47.5" fill="#ECE9F4" stroke="#2B2B2A" stroke-width="1"/><polygon points="194.2,-112.1 329.1,-190.0 329.1,-235.6 194.2,-157.7" fill="#C9C4D6" stroke="#2B2B2A" stroke-width="1"/><polygon points="329.1,-190.0 441.0,-125.4 441.0,-171.0 329.1,-235.6" fill="#B3ADC4" stroke="#2B2B2A" stroke-width="1"/><polygon points="306.1,-47.5 441.0,-125.4 441.0,-171.0 306.1,-93.1" fill="#FFFFFF" stroke="#2B2B2A" stroke-width="1.5" stroke-linejoin="round"/><g transform="translate(296.2 -165.5) scale(1)"><rect x="4" y="4" width="40" height="40" rx="3" fill="#443189"/><path d="M11.5 4v40" stroke="#FFFFFF" stroke-width="1.5"/><g stroke="#FFFFFF" fill="none" stroke-width="2.5" stroke-linecap="round" stroke-linejoin="round"><path d="M16 32V16h5.5a4 4 0 0 1 0 8H16m5 0 4 8"/><path d="M34.5 32V16l-6.5 11h9"/></g></g></g><g id="plan-r3"><polygon points="0.0,0.0 194.2,-112.1 306.1,-47.5 111.9,64.6" fill="#ECE9F4" stroke="#2B2B2A" stroke-width="1"/><polygon points="0.0,0.0 194.2,-112.1 194.2,-157.7 0.0,-45.6" fill="#C9C4D6" stroke="#2B2B2A" stroke-width="1"/><polygon points="0.0,0.0 111.9,64.6 111.9,19.0 0.0,-45.6" fill="#F4F2EE" stroke="#2B2B2A" stroke-width="1.5" stroke-linejoin="round"/><polygon points="111.9,64.6 256.7,-19.0 256.7,-64.6 111.9,19.0" fill="#FFFFFF" stroke="#2B2B2A" stroke-width="1.5" stroke-linejoin="round"/><g transform="translate(131.7 -70.5) scale(1)"><rect x="4" y="4" width="40" height="40" rx="3" fill="#443189"/><path d="M11.5 4v40" stroke="#FFFFFF" stroke-width="1.5"/><g stroke="#FFFFFF" fill="none" stroke-width="2.5" stroke-linecap="round" stroke-linejoin="round"><path d="M16 32V16h5.5a4 4 0 0 1 0 8H16m5 0 4 8"/><path d="M28.5 16h7.5l-4.5 6a5 5 0 1 1-3.5 8.5"/></g></g></g><g><polygon points="256.7,-19.0 306.1,-47.5 342.3,-26.6 292.9,1.9" fill="#ECE9F4" stroke="#2B2B2A" stroke-width="1"/><polygon points="306.1,-47.5 342.3,-26.6 342.3,-72.2 306.1,-93.1" fill="#B3ADC4" stroke="#2B2B2A" stroke-width="1"/><polygon points="256.7,-19.0 292.9,1.9 292.9,-43.7 256.7,-64.6" fill="#F4F2EE" stroke="#2B2B2A" stroke-width="1.5" stroke-linejoin="round"/></g><g id="plan-r2"><polygon points="342.3,-26.6 477.2,-104.5 559.5,-57.0 424.5,20.9" fill="#ECE9F4" stroke="#2B2B2A" stroke-width="1"/><polygon points="342.3,-26.6 477.2,-104.5 477.2,-150.1 342.3,-72.2" fill="#C9C4D6" stroke="#2B2B2A" stroke-width="1"/><polygon points="477.2,-104.5 559.5,-57.0 559.5,-102.6 477.2,-150.1" fill="#B3ADC4" stroke="#2B2B2A" stroke-width="1"/><polygon points="424.5,20.9 483.8,-13.3 483.8,-58.9 424.5,-24.7" fill="#FFFFFF" stroke="#2B2B2A" stroke-width="1.5" stroke-linejoin="round"/><g transform="translate(422.9 -84.8) scale(1)"><rect x="4" y="4" width="40" height="40" rx="3" fill="#443189"/><path d="M11.5 4v40" stroke="#FFFFFF" stroke-width="1.5"/><g stroke="#FFFFFF" fill="none" stroke-width="2.5" stroke-linecap="round" stroke-linejoin="round"><path d="M16 32V16h5.5a4 4 0 0 1 0 8H16m5 0 4 8"/><path d="M28.5 19.5a4 4 0 0 1 8 0c0 3-8 7.5-8 12.5h8"/></g></g></g><g id="plan-r1"><polygon points="483.8,-13.3 559.5,-57.0 664.8,3.8 589.1,47.5" fill="#ECE9F4" stroke="#2B2B2A" stroke-width="1"/><polygon points="559.5,-57.0 664.8,3.8 664.8,-41.8 559.5,-102.6" fill="#B3ADC4" stroke="#2B2B2A" stroke-width="1"/><polygon points="483.8,-13.3 589.1,47.5 589.1,1.9 483.8,-58.9" fill="#F4F2EE" stroke="#2B2B2A" stroke-width="1.5" stroke-linejoin="round"/><polygon points="589.1,47.5 664.8,3.8 664.8,-41.8 589.1,1.9" fill="#FFFFFF" stroke="#2B2B2A" stroke-width="1.5" stroke-linejoin="round"/><g transform="translate(551.3 -50.5) scale(1)"><rect x="4" y="4" width="40" height="40" rx="3" fill="#443189"/><path d="M11.5 4v40" stroke="#FFFFFF" stroke-width="1.5"/><g stroke="#FFFFFF" fill="none" stroke-width="2.5" stroke-linecap="round" stroke-linejoin="round"><path d="M16 32V16h5.5a4 4 0 0 1 0 8H16m5 0 4 8"/><path d="M29 19.5 32.5 16v16"/></g></g></g><g id="plan-eingang"><polygon points="292.9,1.9 342.3,-26.6 450.9,36.1 401.5,64.6" fill="#ECE9F4" stroke="#2B2B2A" stroke-width="1"/><polygon points="424.5,20.9 450.9,36.1 450.9,-9.5 424.5,-24.7" fill="#B3ADC4" stroke="#2B2B2A" stroke-width="1"/><polygon points="375.2,49.4 401.5,64.6 401.5,19.0 375.2,3.8" fill="#F4F2EE" stroke="#2B2B2A" stroke-width="1.5" stroke-linejoin="round"/><polygon points="401.5,64.6 450.9,36.1 450.9,-9.5 401.5,19.0" fill="#DDE6EE" fill-opacity=".85" stroke="#2B2B2A" stroke-width="1.5"/><line x1="426.2" y1="50.3" x2="426.2" y2="4.7" stroke="#2B2B2A" stroke-width="1.5"/><g transform="translate(340.6 -31.6) scale(1)"><rect x="5" y="5" width="38" height="38" rx="2.5" fill="#FFFFFF" stroke="#443189" stroke-width="2"/><path d="M4 7a3 3 0 0 1 3-3h4.5v40H7a3 3 0 0 1-3-3z" fill="#443189"/><g stroke="#443189" fill="none" stroke-width="2.5" stroke-linecap="round" stroke-linejoin="round"><path d="M14 17h26v5a3 3 0 0 0 0 6v5H14v-5a3 3 0 0 0 0-6z"/><path d="M31 18.5v4m0 5v4"/></g></g></g><g id="plan-cafe"><polygon points="148.1,85.5 292.9,1.9 375.2,49.4 230.4,133.0" fill="#ECE9F4" stroke="#2B2B2A" stroke-width="1"/><polygon points="148.1,85.5 292.9,1.9 292.9,-43.7 148.1,39.9" fill="#C9C4D6" stroke="#2B2B2A" stroke-width="1"/><polygon points="148.1,85.5 230.4,133.0 230.4,87.4 148.1,39.9" fill="#F4F2EE" stroke="#2B2B2A" stroke-width="1.5" stroke-linejoin="round"/><polygon points="302.8,91.2 375.2,49.4 375.2,3.8 302.8,45.6" fill="#FFFFFF" stroke="#2B2B2A" stroke-width="1.5" stroke-linejoin="round"/><g transform="translate(238.6 21.7) scale(1)"><rect x="5" y="5" width="38" height="38" rx="2.5" fill="#FFFFFF" stroke="#443189" stroke-width="2"/><path d="M4 7a3 3 0 0 1 3-3h4.5v40H7a3 3 0 0 1-3-3z" fill="#443189"/><g stroke="#443189" fill="none" stroke-width="2.5" stroke-linecap="round" stroke-linejoin="round"><path d="M17 21h15v7a6 6 0 0 1-6 6h-3a6 6 0 0 1-6-6z"/><path d="M32 23h2a3 3 0 0 1 0 6h-2"/><path d="M15 37.5h20"/><path d="M21.5 17c-1.2-1.5 1.2-2.5 0-4m5 4c-1.2-1.5 1.2-2.5 0-4"/></g></g></g><g><polygon points="401.5,64.6 401.5,51.3 473.9,106.4" fill="#F4F2EE" stroke="#2B2B2A" stroke-width="1.5" stroke-linejoin="round"/><polygon points="401.5,51.3 450.9,22.8 523.3,77.9 473.9,106.4" fill="#FFFFFF" stroke="#2B2B2A" stroke-width="1.5" stroke-linejoin="round"/><line x1="424.5" y1="62.2" x2="464.0" y2="39.4" stroke="#2B2B2A" stroke-width="1" stroke-opacity=".45"/><line x1="442.6" y1="76.0" x2="482.1" y2="53.2" stroke="#2B2B2A" stroke-width="1" stroke-opacity=".45"/><line x1="460.7" y1="89.8" x2="500.2" y2="67.0" stroke="#2B2B2A" stroke-width="1" stroke-opacity=".45"/></g><g><polygon points="230.4,133.0 302.8,91.2 414.7,155.8 342.3,197.6" fill="#ECE9F4" stroke="#2B2B2A" stroke-width="1"/><polygon points="302.8,91.2 414.7,155.8 414.7,110.2 302.8,45.6" fill="#B3ADC4" stroke="#2B2B2A" stroke-width="1"/><polygon points="230.4,133.0 342.3,197.6 342.3,152.0 230.4,87.4" fill="#F4F2EE" stroke="#2B2B2A" stroke-width="1.5" stroke-linejoin="round"/><polygon points="342.3,197.6 414.7,155.8 414.7,110.2 342.3,152.0" fill="#FFFFFF" stroke="#2B2B2A" stroke-width="1.5" stroke-linejoin="round"/><g transform="translate(299.5 98.6) scale(1)"><rect x="5" y="5" width="38" height="38" rx="2.5" fill="#FFFFFF" stroke="#443189" stroke-width="2"/><path d="M4 7a3 3 0 0 1 3-3h4.5v40H7a3 3 0 0 1-3-3z" fill="#443189"/><g stroke="#443189" fill="none" stroke-width="2.5" stroke-linecap="round" stroke-linejoin="round"><circle cx="19.5" cy="13.5" r="2.6"/><path d="M19.5 19 14.5 31h10z"/><path d="M19.5 31v6"/><circle cx="34" cy="13.5" r="2.6"/><path d="M30.5 19h7v10h-7z"/><path d="M34 29v8"/></g></g></g></g><rect x="460.8" y="1177.6" width="246" height="30" rx="2" fill="#2B2B2A"/><text x="583.8" y="1197.6" font-family="'Source Sans 3', Arial, sans-serif" font-size="14" font-weight="600" fill="#FFFFFF" text-anchor="middle">R2: Klassizismus bis Realismus</text><path d="M589.8 1241.6 l0 22 l6 -6 l5 9 l3 -2 l-5 -8 l8 0 z" fill="#FFFFFF" stroke="#2B2B2A" stroke-width="1.2"/><line x1="960" y1="1060" x2="1376" y2="1060" stroke="#C9C6C0" stroke-width="1"/><g transform="translate(960 1068) scale(0.9)"><rect x="4" y="4" width="40" height="40" rx="3" fill="#443189"/><path d="M11.5 4v40" stroke="#FFFFFF" stroke-width="1.5"/><g stroke="#FFFFFF" fill="none" stroke-width="2.5" stroke-linecap="round" stroke-linejoin="round"><path d="M16 32V16h5.5a4 4 0 0 1 0 8H16m5 0 4 8"/><path d="M29 19.5 32.5 16v16"/></g></g><text x="1018" y="1096" font-family="'Source Sans 3', Arial, sans-serif" font-size="15" font-weight="600" fill="#2B2B2A">R1: Renaissance bis Rokoko</text><text x="1368" y="1096" font-family="'Source Sans 3', Arial, sans-serif" font-size="15" font-weight="400" fill="#443189" text-anchor="end">↓</text><line x1="960" y1="1120" x2="1376" y2="1120" stroke="#C9C6C0" stroke-width="1"/><g transform="translate(960 1128) scale(0.9)"><rect x="4" y="4" width="40" height="40" rx="3" fill="#443189"/><path d="M11.5 4v40" stroke="#FFFFFF" stroke-width="1.5"/><g stroke="#FFFFFF" fill="none" stroke-width="2.5" stroke-linecap="round" stroke-linejoin="round"><path d="M16 32V16h5.5a4 4 0 0 1 0 8H16m5 0 4 8"/><path d="M28.5 19.5a4 4 0 0 1 8 0c0 3-8 7.5-8 12.5h8"/></g></g><text x="1018" y="1156" font-family="'Source Sans 3', Arial, sans-serif" font-size="15" font-weight="600" fill="#2B2B2A">R2: Klassizismus bis Realismus</text><text x="1368" y="1156" font-family="'Source Sans 3', Arial, sans-serif" font-size="15" font-weight="400" fill="#443189" text-anchor="end">↓</text><line x1="960" y1="1180" x2="1376" y2="1180" stroke="#C9C6C0" stroke-width="1"/><g transform="translate(960 1188) scale(0.9)"><rect x="4" y="4" width="40" height="40" rx="3" fill="#443189"/><path d="M11.5 4v40" stroke="#FFFFFF" stroke-width="1.5"/><g stroke="#FFFFFF" fill="none" stroke-width="2.5" stroke-linecap="round" stroke-linejoin="round"><path d="M16 32V16h5.5a4 4 0 0 1 0 8H16m5 0 4 8"/><path d="M28.5 16h7.5l-4.5 6a5 5 0 1 1-3.5 8.5"/></g></g><text x="1018" y="1216" font-family="'Source Sans 3', Arial, sans-serif" font-size="15" font-weight="600" fill="#2B2B2A">R3: Das 20. Jahrhundert</text><text x="1368" y="1216" font-family="'Source Sans 3', Arial, sans-serif" font-size="15" font-weight="400" fill="#443189" text-anchor="end">↓</text><line x1="960" y1="1240" x2="1376" y2="1240" stroke="#C9C6C0" stroke-width="1"/><g transform="translate(960 1248) scale(0.9)"><rect x="4" y="4" width="40" height="40" rx="3" fill="#443189"/><path d="M11.5 4v40" stroke="#FFFFFF" stroke-width="1.5"/><g stroke="#FFFFFF" fill="none" stroke-width="2.5" stroke-linecap="round" stroke-linejoin="round"><path d="M16 32V16h5.5a4 4 0 0 1 0 8H16m5 0 4 8"/><path d="M34.5 32V16l-6.5 11h9"/></g></g><text x="1018" y="1276" font-family="'Source Sans 3', Arial, sans-serif" font-size="15" font-weight="600" fill="#2B2B2A">R4: Künstlerinnen der Gegenwart</text><text x="1368" y="1276" font-family="'Source Sans 3', Arial, sans-serif" font-size="15" font-weight="400" fill="#443189" text-anchor="end">↓</text><line x1="960" y1="1300" x2="1376" y2="1300" stroke="#C9C6C0" stroke-width="1"/><g transform="translate(960 1308) scale(0.9)"><rect x="5" y="5" width="38" height="38" rx="2.5" fill="#FFFFFF" stroke="#443189" stroke-width="2"/><path d="M4 7a3 3 0 0 1 3-3h4.5v40H7a3 3 0 0 1-3-3z" fill="#443189"/><g stroke="#443189" fill="none" stroke-width="2.5" stroke-linecap="round" stroke-linejoin="round"><path d="M17 21h15v7a6 6 0 0 1-6 6h-3a6 6 0 0 1-6-6z"/><path d="M32 23h2a3 3 0 0 1 0 6h-2"/><path d="M15 37.5h20"/><path d="M21.5 17c-1.2-1.5 1.2-2.5 0-4m5 4c-1.2-1.5 1.2-2.5 0-4"/></g></g><text x="1018" y="1336" font-family="'Source Sans 3', Arial, sans-serif" font-size="15" font-weight="600" fill="#2B2B2A">Museumscafé</text><text x="1368" y="1336" font-family="'Source Sans 3', Arial, sans-serif" font-size="15" font-weight="400" fill="#443189" text-anchor="end">→</text><line x1="960" y1="1360" x2="1376" y2="1360" stroke="#C9C6C0" stroke-width="1"/><g transform="translate(960 1368) scale(0.9)"><rect x="5" y="5" width="38" height="38" rx="2.5" fill="#FFFFFF" stroke="#443189" stroke-width="2"/><path d="M4 7a3 3 0 0 1 3-3h4.5v40H7a3 3 0 0 1-3-3z" fill="#443189"/><g stroke="#443189" fill="none" stroke-width="2.5" stroke-linecap="round" stroke-linejoin="round"><path d="M14 17h26v5a3 3 0 0 0 0 6v5H14v-5a3 3 0 0 0 0-6z"/><path d="M31 18.5v4m0 5v4"/></g></g><text x="1018" y="1396" font-family="'Source Sans 3', Arial, sans-serif" font-size="15" font-weight="600" fill="#2B2B2A">Tickets</text><text x="1368" y="1396" font-family="'Source Sans 3', Arial, sans-serif" font-size="15" font-weight="400" fill="#443189" text-anchor="end">→</text><line x1="960" y1="1420" x2="1376" y2="1420" stroke="#C9C6C0" stroke-width="1"/><g transform="translate(960 1428) scale(0.9)"><rect x="5" y="5" width="38" height="38" rx="2.5" fill="#FFFFFF" stroke="#443189" stroke-width="2"/><path d="M4 7a3 3 0 0 1 3-3h4.5v40H7a3 3 0 0 1-3-3z" fill="#443189"/><g stroke="#443189" fill="none" stroke-width="2.5" stroke-linecap="round" stroke-linejoin="round"><circle cx="19.5" cy="13.5" r="2.6"/><path d="M19.5 19 14.5 31h10z"/><path d="M19.5 31v6"/><circle cx="34" cy="13.5" r="2.6"/><path d="M30.5 19h7v10h-7z"/><path d="M34 29v8"/></g></g><text x="1018" y="1456" font-family="'Source Sans 3', Arial, sans-serif" font-size="15" font-weight="600" fill="#2B2B2A">Toiletten</text><line x1="960" y1="1480" x2="1376" y2="1480" stroke="#C9C6C0" stroke-width="1"/><line x1="64" y1="1662.8" x2="1376" y2="1662.8" stroke="#C9C6C0" stroke-width="1"/><g transform="translate(64 1702.8) scale(1.2)"><rect x="4" y="4" width="40" height="40" rx="3" fill="#443189"/><path d="M11.5 4v40" stroke="#FFFFFF" stroke-width="1.5"/><g stroke="#FFFFFF" fill="none" stroke-width="2.5" stroke-linecap="round" stroke-linejoin="round"><path d="M16 32V16h5.5a4 4 0 0 1 0 8H16m5 0 4 8"/><path d="M29 19.5 32.5 16v16"/></g></g><text x="140" y="1730.8" font-family="'Cormorant Garamond', Georgia, serif" font-size="34" font-weight="600" fill="#2B2B2A">R1: Renaissance bis Rokoko</text><text x="140" y="1758.8" font-family="'Cormorant Garamond', Georgia, serif" font-size="20" font-weight="400" font-style="italic" fill="#6E6A64">Wie Künstlerinnen die Antike wiederauferstehen lassen</text><rect x="64" y="1798.8" width="625.6" height="7" rx="3.5" fill="#C9C6C0"/><rect x="64" y="1820.8" width="632.4" height="7" rx="3.5" fill="#C9C6C0"/><rect x="64" y="1842.8" width="639.2" height="7" rx="3.5" fill="#C9C6C0"/><rect x="64" y="1864.8" width="646" height="7" rx="3.5" fill="#C9C6C0"/><rect x="64" y="1886.8" width="652.8" height="7" rx="3.5" fill="#C9C6C0"/><rect x="64" y="1908.8" width="659.6" height="7" rx="3.5" fill="#C9C6C0"/><rect x="64" y="1930.8" width="666.4" height="7" rx="3.5" fill="#C9C6C0"/><rect x="64" y="1952.8" width="673.2" height="7" rx="3.5" fill="#C9C6C0"/><rect x="64" y="1974.8" width="421.6" height="7" rx="3.5" fill="#C9C6C0"/><rect x="64" y="2028.8" width="421.3" height="286.5" fill="#E4E2DE" stroke="#C9C6C0" stroke-width="1"/><line x1="64" y1="2028.8" x2="485.3" y2="2315.3" stroke="#C9C6C0" stroke-width="1"/><line x1="485.3" y1="2028.8" x2="64" y2="2315.3" stroke="#C9C6C0" stroke-width="1"/><rect x="178.3" y="2159.1" width="192.8" height="26" rx="3" fill="#FFFFFF" fill-opacity="0.92"/><text x="274.7" y="2176.6" font-family="'Source Sans 3', Arial, sans-serif" font-size="12" font-weight="400" fill="#6E6A64" text-anchor="middle">Werk 1 · Lupe → Großansicht</text><rect x="509.3" y="2028.8" width="421.3" height="240.2" fill="#E4E2DE" stroke="#C9C6C0" stroke-width="1"/><line x1="509.3" y1="2028.8" x2="930.7" y2="2269" stroke="#C9C6C0" stroke-width="1"/><line x1="930.7" y1="2028.8" x2="509.3" y2="2269" stroke="#C9C6C0" stroke-width="1"/><rect x="623.6" y="2135.9" width="192.8" height="26" rx="3" fill="#FFFFFF" fill-opacity="0.92"/><text x="720" y="2153.4" font-family="'Source Sans 3', Arial, sans-serif" font-size="12" font-weight="400" fill="#6E6A64" text-anchor="middle">Werk 2 · Lupe → Großansicht</text><rect x="954.7" y="2028.8" width="421.3" height="240.2" fill="#E4E2DE" stroke="#C9C6C0" stroke-width="1"/><line x1="954.7" y1="2028.8" x2="1376" y2="2269" stroke="#C9C6C0" stroke-width="1"/><line x1="1376" y1="2028.8" x2="954.7" y2="2269" stroke="#C9C6C0" stroke-width="1"/><rect x="1068.9" y="2135.9" width="192.8" height="26" rx="3" fill="#FFFFFF" fill-opacity="0.92"/><text x="1165.3" y="2153.4" font-family="'Source Sans 3', Arial, sans-serif" font-size="12" font-weight="400" fill="#6E6A64" text-anchor="middle">Werk 3 · Lupe → Großansicht</text><text x="64" y="2355.3" font-family="'Source Sans 3', Arial, sans-serif" font-size="15" font-weight="600" fill="#443189">↑ Zurück zum Gebäudeplan</text><line x1="64" y1="2360.3" x2="244" y2="2360.3" stroke="#443189" stroke-width="1"/><rect x="1076" y="2335.3" width="300" height="56" fill="none" stroke="#C9C6C0" stroke-width="1"/><text x="1092" y="2357.3" font-family="'Source Sans 3', Arial, sans-serif" font-size="10" font-weight="600" fill="#6E6A64" letter-spacing="1.2">NÄCHSTER RAUM</text><text x="1092" y="2379.3" font-family="'Source Sans 3', Arial, sans-serif" font-size="15" font-weight="600" fill="#2B2B2A">R2: Klassizismus bis Realismus →</text><line x1="64" y1="2431.3" x2="1376" y2="2431.3" stroke="#C9C6C0" stroke-width="1"/><g transform="translate(64 2443.3) scale(0.8)"><rect x="4" y="4" width="40" height="40" rx="3" fill="#443189"/><path d="M11.5 4v40" stroke="#FFFFFF" stroke-width="1.5"/><g stroke="#FFFFFF" fill="none" stroke-width="2.5" stroke-linecap="round" stroke-linejoin="round"><path d="M16 32V16h5.5a4 4 0 0 1 0 8H16m5 0 4 8"/><path d="M28.5 19.5a4 4 0 0 1 8 0c0 3-8 7.5-8 12.5h8"/></g></g><text x="120" y="2469.3" font-family="'Cormorant Garamond', Georgia, serif" font-size="22" font-weight="600" fill="#2B2B2A">R2: Klassizismus bis Realismus</text><text x="1376" y="2469.3" font-family="'Source Sans 3', Arial, sans-serif" font-size="13" font-weight="400" font-style="italic" fill="#6E6A64" text-anchor="end">gleicher Aufbau wie R1</text><line x1="64" y1="2495.3" x2="1376" y2="2495.3" stroke="#C9C6C0" stroke-width="1"/><g transform="translate(64 2507.3) scale(0.8)"><rect x="4" y="4" width="40" height="40" rx="3" fill="#443189"/><path d="M11.5 4v40" stroke="#FFFFFF" stroke-width="1.5"/><g stroke="#FFFFFF" fill="none" stroke-width="2.5" stroke-linecap="round" stroke-linejoin="round"><path d="M16 32V16h5.5a4 4 0 0 1 0 8H16m5 0 4 8"/><path d="M28.5 16h7.5l-4.5 6a5 5 0 1 1-3.5 8.5"/></g></g><text x="120" y="2533.3" font-family="'Cormorant Garamond', Georgia, serif" font-size="22" font-weight="600" fill="#2B2B2A">R3: Das 20. Jahrhundert</text><text x="1376" y="2533.3" font-family="'Source Sans 3', Arial, sans-serif" font-size="13" font-weight="400" font-style="italic" fill="#6E6A64" text-anchor="end">gleicher Aufbau wie R1</text><line x1="64" y1="2559.3" x2="1376" y2="2559.3" stroke="#C9C6C0" stroke-width="1"/><g transform="translate(64 2571.3) scale(0.8)"><rect x="4" y="4" width="40" height="40" rx="3" fill="#443189"/><path d="M11.5 4v40" stroke="#FFFFFF" stroke-width="1.5"/><g stroke="#FFFFFF" fill="none" stroke-width="2.5" stroke-linecap="round" stroke-linejoin="round"><path d="M16 32V16h5.5a4 4 0 0 1 0 8H16m5 0 4 8"/><path d="M34.5 32V16l-6.5 11h9"/></g></g><text x="120" y="2597.3" font-family="'Cormorant Garamond', Georgia, serif" font-size="22" font-weight="600" fill="#2B2B2A">R4: Künstlerinnen der Gegenwart</text><text x="1376" y="2597.3" font-family="'Source Sans 3', Arial, sans-serif" font-size="13" font-weight="400" font-style="italic" fill="#6E6A64" text-anchor="end">gleicher Aufbau wie R1</text><rect x="0" y="2751.3" width="1440" height="300" fill="#1C1B1A"/><rect x="64" y="2807.3" width="92" height="64" fill="#3A3936" stroke="#55524D" stroke-width="1"/><rect x="64" y="2807.3" width="22" height="64" fill="#443189"/><text x="121" y="2844.3" font-family="'Source Sans 3', Arial, sans-serif" font-size="12" font-weight="400" fill="#8E8A84" text-anchor="middle">Logo</text><text x="64" y="2907.3" font-family="'Source Sans 3', Arial, sans-serif" font-size="14" font-weight="400" fill="#E8E5E0">Isabella-Edel-Stiftung</text><text x="64" y="2928.3" font-family="'Source Sans 3', Arial, sans-serif" font-size="14" font-weight="400" fill="#E8E5E0">Brixener Straße 5</text><text x="64" y="2949.3" font-family="'Source Sans 3', Arial, sans-serif" font-size="14" font-weight="400" fill="#E8E5E0">28215 Bremen</text><rect x="654.4" y="2807.3" width="18" height="18" fill="none" stroke="#8B7CD0" stroke-width="1.5"/><text x="680.4" y="2821.3" font-family="'Source Sans 3', Arial, sans-serif" font-size="14" font-weight="600" fill="#E8E5E0">Öffnungszeiten</text><text x="654.4" y="2847.3" font-family="'Source Sans 3', Arial, sans-serif" font-size="14" font-weight="400" fill="#E8E5E0">Dienstag–Sonntag: 11–17 Uhr</text><text x="1048" y="2821.3" font-family="'Source Sans 3', Arial, sans-serif" font-size="14" font-weight="400" fill="#E8E5E0">Impressum</text><line x1="1048" y1="2825.3" x2="1114" y2="2825.3" stroke="#E8E5E0" stroke-width="1"/><text x="1140" y="2821.3" font-family="'Source Sans 3', Arial, sans-serif" font-size="14" font-weight="400" fill="#E8E5E0">Datenschutz</text><line x1="1140" y1="2825.3" x2="1220" y2="2825.3" stroke="#E8E5E0" stroke-width="1"/><line x1="0" y1="2987.3" x2="1440" y2="2987.3" stroke="#3A3936" stroke-width="1"/><text x="64" y="3023.3" font-family="'Source Sans 3', Arial, sans-serif" font-size="12" font-weight="400" fill="#8E8A84">Mediengestalter-Abschlussprüfung Winter 2024/25, ZFA Kassel</text><circle cx="1460" cy="82" r="11" fill="#E8730C"/><text x="1460" y="86.5" font-family="'Source Sans 3', Arial, sans-serif" font-size="13" font-weight="700" fill="#FFFFFF" text-anchor="middle">1</text><line x1="1471" y1="82" x2="1504" y2="80" stroke="#E8730C" stroke-width="1" stroke-dasharray="3 3"/><rect x="1504" y="64" width="340" height="96" rx="3" fill="#FFF1A8" stroke="#E0B93A" stroke-width="1"/><circle cx="1522" cy="82" r="11" fill="#E8730C"/><text x="1522" y="86.5" font-family="'Source Sans 3', Arial, sans-serif" font-size="13" font-weight="700" fill="#FFFFFF" text-anchor="middle">1</text><text x="1542" y="86" font-family="'Source Sans 3', Arial, sans-serif" font-size="13" font-weight="400" fill="#2B2B2A">Horizontale Navigation mit allen Menüpunkten,</text><text x="1542" y="104" font-family="'Source Sans 3', Arial, sans-serif" font-size="13" font-weight="400" fill="#2B2B2A">aktiver Punkt violett unterstrichen. „Tickets“</text><text x="1542" y="122" font-family="'Source Sans 3', Arial, sans-serif" font-size="13" font-weight="400" fill="#2B2B2A">als Button. Rechts: Umschalter Dunkler Modus</text><text x="1542" y="140" font-family="'Source Sans 3', Arial, sans-serif" font-size="13" font-weight="400" fill="#2B2B2A">und Barrierefreier Modus.</text><circle cx="1460" cy="186" r="11" fill="#E8730C"/><text x="1460" y="190.5" font-family="'Source Sans 3', Arial, sans-serif" font-size="13" font-weight="700" fill="#FFFFFF" text-anchor="middle">2</text><line x1="1471" y1="186" x2="1504" y2="188" stroke="#E8730C" stroke-width="1" stroke-dasharray="3 3"/><rect x="1504" y="172" width="340" height="78" rx="3" fill="#FFF1A8" stroke="#E0B93A" stroke-width="1"/><circle cx="1522" cy="190" r="11" fill="#E8730C"/><text x="1522" y="194.5" font-family="'Source Sans 3', Arial, sans-serif" font-size="13" font-weight="700" fill="#FFFFFF" text-anchor="middle">2</text><text x="1542" y="194" font-family="'Source Sans 3', Arial, sans-serif" font-size="13" font-weight="400" fill="#2B2B2A">Randabfallender Bildstreifen, darunter der</text><text x="1542" y="212" font-family="'Source Sans 3', Arial, sans-serif" font-size="13" font-weight="400" fill="#2B2B2A">Seitentitel mit violettem Balken – gleicher</text><text x="1542" y="230" font-family="'Source Sans 3', Arial, sans-serif" font-size="13" font-weight="400" fill="#2B2B2A">Aufbau auf allen Unterseiten.</text><circle cx="1460" cy="809.2" r="11" fill="#E8730C"/><text x="1460" y="813.7" font-family="'Source Sans 3', Arial, sans-serif" font-size="13" font-weight="700" fill="#FFFFFF" text-anchor="middle">3</text><line x1="1471" y1="809.2" x2="1504" y2="807.2" stroke="#E8730C" stroke-width="1" stroke-dasharray="3 3"/><rect x="1504" y="791.2" width="340" height="132" rx="3" fill="#FFF1A8" stroke="#E0B93A" stroke-width="1"/><circle cx="1522" cy="809.2" r="11" fill="#E8730C"/><text x="1522" y="813.7" font-family="'Source Sans 3', Arial, sans-serif" font-size="13" font-weight="700" fill="#FFFFFF" text-anchor="middle">3</text><text x="1542" y="813.2" font-family="'Source Sans 3', Arial, sans-serif" font-size="13" font-weight="400" fill="#2B2B2A">Desktop: Plan (2/3) und Legende (1/3)</text><text x="1542" y="831.2" font-family="'Source Sans 3', Arial, sans-serif" font-size="13" font-weight="400" fill="#2B2B2A">nebeneinander. Per Mausklick auf einen Raum</text><text x="1542" y="849.2" font-family="'Source Sans 3', Arial, sans-serif" font-size="13" font-weight="400" fill="#2B2B2A">zur Detailbeschreibung springen. Café und</text><text x="1542" y="867.2" font-family="'Source Sans 3', Arial, sans-serif" font-size="13" font-weight="400" fill="#2B2B2A">Eingang führen zu „Museumscafé“ bzw.</text><text x="1542" y="885.2" font-family="'Source Sans 3', Arial, sans-serif" font-size="13" font-weight="400" fill="#2B2B2A">„Tickets“. Fährt man über die Legende,</text><text x="1542" y="903.2" font-family="'Source Sans 3', Arial, sans-serif" font-size="13" font-weight="400" fill="#2B2B2A">leuchtet der Raum im Plan auf.</text><circle cx="1460" cy="1608.8" r="11" fill="#E8730C"/><text x="1460" y="1613.3" font-family="'Source Sans 3', Arial, sans-serif" font-size="13" font-weight="700" fill="#FFFFFF" text-anchor="middle">4</text><line x1="1471" y1="1608.8" x2="1504" y2="1606.8" stroke="#E8730C" stroke-width="1" stroke-dasharray="3 3"/><rect x="1504" y="1590.8" width="340" height="114" rx="3" fill="#FFF1A8" stroke="#E0B93A" stroke-width="1"/><circle cx="1522" cy="1608.8" r="11" fill="#E8730C"/><text x="1522" y="1613.3" font-family="'Source Sans 3', Arial, sans-serif" font-size="13" font-weight="700" fill="#FFFFFF" text-anchor="middle">4</text><text x="1542" y="1612.8" font-family="'Source Sans 3', Arial, sans-serif" font-size="13" font-weight="400" fill="#2B2B2A">Detailbeschreibung je Raum: Piktogramm, Titel,</text><text x="1542" y="1630.8" font-family="'Source Sans 3', Arial, sans-serif" font-size="13" font-weight="400" fill="#2B2B2A">Unterzeile, vorgegebener Text, Werke wie an</text><text x="1542" y="1648.8" font-family="'Source Sans 3', Arial, sans-serif" font-size="13" font-weight="400" fill="#2B2B2A">einer Museumswand (1 / 2 / 3 Spalten, Klick</text><text x="1542" y="1666.8" font-family="'Source Sans 3', Arial, sans-serif" font-size="13" font-weight="400" fill="#2B2B2A">öffnet Großansicht). Am Ende „Zurück zum</text><text x="1542" y="1684.8" font-family="'Source Sans 3', Arial, sans-serif" font-size="13" font-weight="400" fill="#2B2B2A">Gebäudeplan“ und Link zum nächsten Raum.</text><circle cx="1460" cy="2769.3" r="11" fill="#E8730C"/><text x="1460" y="2773.8" font-family="'Source Sans 3', Arial, sans-serif" font-size="13" font-weight="700" fill="#FFFFFF" text-anchor="middle">5</text><line x1="1471" y1="2769.3" x2="1504" y2="2767.3" stroke="#E8730C" stroke-width="1" stroke-dasharray="3 3"/><rect x="1504" y="2751.3" width="340" height="96" rx="3" fill="#FFF1A8" stroke="#E0B93A" stroke-width="1"/><circle cx="1522" cy="2769.3" r="11" fill="#E8730C"/><text x="1522" y="2773.8" font-family="'Source Sans 3', Arial, sans-serif" font-size="13" font-weight="700" fill="#FFFFFF" text-anchor="middle">5</text><text x="1542" y="2773.3" font-family="'Source Sans 3', Arial, sans-serif" font-size="13" font-weight="400" fill="#2B2B2A">Dunkle Fußzeile: Logo, Adresse,</text><text x="1542" y="2791.3" font-family="'Source Sans 3', Arial, sans-serif" font-size="13" font-weight="400" fill="#2B2B2A">Öffnungszeiten, Impressum und Datenschutz</text><text x="1542" y="2809.3" font-family="'Source Sans 3', Arial, sans-serif" font-size="13" font-weight="400" fill="#2B2B2A">(rechtliche Angaben dort, wo man sie</text><text x="1542" y="2827.3" font-family="'Source Sans 3', Arial, sans-serif" font-size="13" font-weight="400" fill="#2B2B2A">erwartet). Darunter der ZFA-Hinweis.</text></svg>
